<?xml version="1.0" encoding="UTF-8"?>
<svg width="752pt" height="752pt" version="1.1" viewBox="0 0 752 752" xmlns="http://www.w3.org/2000/svg">
 <g>
  <path d="m466.93 329.12h-78.141c7.1055-16.102 16.102-40.727 16.102-67.25 0-25.102-13.734-44.988-38.359-56.355-9.4727-4.2617-20.363-4.2617-29.363 0-9.4727 4.2617-16.102 12.785-18.469 22.73l-4.7344 18.469c-8.5234 33.152-26.52 61.566-50.672 80.98-4.7344 3.7891-9.4727 6.6289-14.207 9.4727-3.7891-4.7344-9.9453-7.5781-16.574-7.5781l-59.676 0.003906c-11.84 0-21.785 9.9453-21.785 21.785v177.12c0 11.84 9.9453 21.785 21.785 21.785h59.199c7.5781 0 13.734-3.7891 17.996-9.4727 35.992 10.418 69.617 15.629 105.61 15.629h86.664c20.836 0 37.887-17.051 37.887-37.887 0-6.6289-1.8945-13.262-5.2109-18.941 10.418-6.6289 17.523-18.469 17.523-31.73 0-6.6289-1.8945-13.262-5.2109-18.941 10.418-6.6289 17.523-18.469 17.523-31.73 0-9.9453-3.7891-18.469-9.9453-25.102 6.1562-6.6289 9.9453-15.629 9.9453-25.102 0-20.84-17.051-37.887-37.887-37.887zm-264.26 190.38c-8.9961 0-16.102-7.1055-16.102-16.102 0-8.9961 7.1055-16.102 16.102-16.102s16.102 7.1055 16.102 16.102c0 9-7.1055 16.102-16.102 16.102zm240.58-115.08h23.68c7.1055 0 12.785 5.6836 12.785 12.785 0 7.1055-5.6836 12.785-12.785 12.785h-28.414c-7.1055 0-12.312 5.6836-12.312 12.312 0 7.1055 5.6836 12.312 12.312 12.312h16.102c7.1055 0 12.785 5.6836 12.785 12.785 0 7.1055-5.6836 12.785-12.785 12.785h-25.102c-6.6289 0-12.312 5.6836-12.312 12.312 0 7.1055 5.6836 12.312 12.312 12.312l12.789 0.007812c7.1055 0 12.785 5.6836 12.785 12.785 0 7.1055-5.6836 12.785-12.785 12.785l-86.668 0.003906c-34.57 0-66.301-5.2109-101.35-15.629l0.003907-152.02c8.0508-4.2617 16.574-8.9961 24.152-15.629 28.414-22.73 49.727-55.883 59.199-94.242l4.7344-18.469c0.94531-3.7891 3.7891-5.6836 5.2109-6.1562 1.4219-0.94531 4.7344-1.8945 8.5234 0 16.102 7.5781 23.68 18.469 23.68 33.625 0 37.887-21.785 72.457-22.258 72.93-2.3672 3.7891-2.3672 8.5234-0.47266 12.785 2.3672 3.7891 6.1562 6.6289 10.891 6.6289h98.977c7.1055 0 12.785 5.6836 12.785 12.785 0 7.1055-5.6836 12.785-12.785 12.785h-23.68c-7.1055 0-12.312 5.6836-12.312 12.312 0 6.6367 5.6836 12.32 12.312 12.32z"/>
  <path d="m588.64 329.12h-44.516c-6.6289 0-12.312 5.6836-12.312 12.312 0 6.6289 5.6836 12.312 12.312 12.312h44.516c6.6289 0 12.312-5.6836 12.312-12.312 0-7.1016-5.6836-12.312-12.312-12.312z"/>
  <path d="m558.33 238.19c-4.7344-4.7344-12.785-4.7344-17.523 0l-31.258 31.258c-4.7344 4.7344-4.7344 12.785 0 17.523 2.3672 2.3672 5.6836 3.7891 8.5234 3.7891 3.3164 0 6.1562-1.4219 8.5234-3.7891l31.258-31.258c5.6836-4.7344 5.6836-12.312 0.47656-17.523z"/>
  <path d="m456.04 264.71c6.6289 0 12.312-5.6836 12.312-12.312v-44.516c0-6.6289-5.6836-12.312-12.312-12.312s-12.312 5.6836-12.312 12.312v44.516c-0.47266 7.1016 5.2109 12.312 12.312 12.312z"/>
 </g>
</svg>
