<?xml version="1.0" encoding="UTF-8"?>
<svg width="752pt" height="752pt" version="1.1" viewBox="0 0 752 752" xmlns="http://www.w3.org/2000/svg">
 <g>
  <path d="m300.23 470.72c2.0469-0.003906 4.0781-0.33984 6.0156-0.99609l113.66-37.887c5.6406-1.8984 10.059-6.3359 11.934-11.98l37.887-113.66c1.4922-4.4727 1.2617-9.3398-0.64453-13.652s-5.3516-7.7578-9.6641-9.6641-9.1797-2.1367-13.652-0.64844l-113.66 37.887c-5.6406 1.8984-10.059 6.3359-11.934 11.984l-37.887 113.66c-1.9336 5.7734-0.97266 12.129 2.582 17.074 3.5586 4.9453 9.2734 7.8789 15.363 7.8828zm52.855-117.64 68.766-22.922-22.926 68.762-68.762 22.922z"/>
  <path d="m376 603.32c52.598-0.0625 103.55-18.363 144.16-51.781 40.617-33.418 68.387-79.887 78.578-131.49 10.191-51.598 2.1758-105.14-22.684-151.49-24.859-46.352-65.023-82.648-113.64-102.7-48.621-20.059-102.7-22.633-153-7.2852-50.309 15.344-93.738 47.66-122.89 91.438-29.148 43.781-42.219 96.312-36.977 148.65 5.2461 52.336 28.473 101.23 65.73 138.36 21.105 21.09 46.172 37.801 73.754 49.18 27.582 11.379 57.141 17.195 86.977 17.121zm-133.98-361.25c26.492-26.5 60.246-44.547 96.992-51.859 36.75-7.3164 74.84-3.5664 109.46 10.77 34.617 14.336 64.207 38.613 85.023 69.77 20.82 31.152 31.93 67.777 31.93 105.25s-11.109 74.098-31.93 105.25c-20.816 31.152-50.406 55.434-85.023 69.77-34.617 14.336-72.707 18.086-109.46 10.77-36.746-7.3125-70.5-25.359-96.992-51.859-23.586-23.465-40.559-52.746-49.199-84.875-8.6367-32.133-8.6367-65.977 0-98.105 8.6406-32.133 25.613-61.41 49.199-84.875z"/>
 </g>
</svg>
