<svg xmlns="http://www.w3.org/2000/svg" id="Calque_2" data-name="Calque 2" viewBox="0 0 1317.36 554.54"><defs><style>.cls-1{fill:#231f20;}</style></defs><path class="cls-1" d="M186.26,258.44q-27.9.75-55.81,1.6a1.42,1.42,0,0,0-1.37,1.39V376.67a1.42,1.42,0,0,0,1.37,1.39q14.84.45,29.66.87a1.31,1.31,0,0,0,1.37-1.33V343.36a1.36,1.36,0,0,1,1.37-1.36l23.41.25c28.21.36,48-15.18,48-42.64S214.48,257.61,186.26,258.44Zm-1.33,55.76-22.08.05a1.38,1.38,0,0,1-1.37-1.36V288.23a1.4,1.4,0,0,1,1.37-1.39l22.08-.33c11-.16,16.58,4.46,16.58,13.71S196,314.19,184.93,314.2Z"></path><path class="cls-1" d="M375.18,254.36q-15.12.24-30.24.51a1.47,1.47,0,0,0-1.37,1.49V329c0,20.17-9.34,26.85-23.26,26.69s-23.26-7-23.26-26.83V257.24a1.36,1.36,0,0,0-1.37-1.41q-15.1.32-30.23.65a1.44,1.44,0,0,0-1.37,1.46l.18,72.54c0,35.45,24,53.92,56.05,54.65s56.05-17.39,56.05-54.25q.11-37.53.19-75.06A1.4,1.4,0,0,0,375.18,254.36Z"></path><path class="cls-1" d="M493.72,338a1.57,1.57,0,0,1,.67-2.37c15.29-5.6,24.8-18.15,24.8-38.58,0-27.73-17.54-44.31-45.76-44q-29.06.3-58.12.71a1.47,1.47,0,0,0-1.37,1.51V382.84a1.48,1.48,0,0,0,1.37,1.51q14.83.21,29.67.38a1.41,1.41,0,0,0,1.38-1.48V340.64a1.42,1.42,0,0,1,1.37-1.5l8,0a1.35,1.35,0,0,1,1.09.6q15.31,22.31,30.64,44.83a1.33,1.33,0,0,0,1.09.61q18.07.18,36.15.32a1.53,1.53,0,0,0,1.07-2.45Q509.77,360.45,493.72,338Zm-23.91-26.85-22.08,0a1.43,1.43,0,0,1-1.37-1.5v-24.4a1.45,1.45,0,0,1,1.37-1.51l22.08-.14c10.87-.06,16.58,4.62,16.58,13.89C486.39,306.58,481.06,311.12,469.81,311.13Z"></path><path class="cls-1" d="M645.85,252.06q-44.58,0-89.16.3a1.47,1.47,0,0,0-1.37,1.53V384.21a1.46,1.46,0,0,0,1.37,1.53q44.58.27,89.16.3a1.45,1.45,0,0,0,1.37-1.53V356.56a1.44,1.44,0,0,0-1.37-1.53q-28.36,0-56.74-.07a1.47,1.47,0,0,1-1.38-1.53q0-9,0-18a1.46,1.46,0,0,1,1.38-1.52l28.75,0a1.46,1.46,0,0,0,1.37-1.53V304.51a1.46,1.46,0,0,0-1.37-1.53l-28.75,0a1.46,1.46,0,0,1-1.38-1.52q0-8.42,0-16.81a1.47,1.47,0,0,1,1.38-1.53q28.36-.06,56.74-.07a1.45,1.45,0,0,0,1.37-1.53v-28A1.45,1.45,0,0,0,645.85,252.06Z"></path><path class="cls-1" d="M770.1,354.84q-25.7.09-51.41.14a1.46,1.46,0,0,1-1.37-1.53V253.68a1.46,1.46,0,0,0-1.37-1.53l-29.67-.07a1.46,1.46,0,0,0-1.37,1.53V384.49a1.46,1.46,0,0,0,1.37,1.53q41.91-.07,83.82-.34a1.45,1.45,0,0,0,1.37-1.52v-27.8A1.44,1.44,0,0,0,770.1,354.84Z"></path><path class="cls-1" d="M891.5,253.61q-44.58-.6-89.16-1a1.43,1.43,0,0,0-1.37,1.5V384a1.43,1.43,0,0,0,1.37,1.5q44.58-.37,89.16-1a1.47,1.47,0,0,0,1.37-1.51v-27.3a1.44,1.44,0,0,0-1.37-1.48q-28.38.19-56.75.35a1.42,1.42,0,0,1-1.37-1.5V335.29a1.45,1.45,0,0,1,1.37-1.51l28.75-.07a1.45,1.45,0,0,0,1.37-1.51V304.76a1.44,1.44,0,0,0-1.37-1.5l-28.75-.08a1.45,1.45,0,0,1-1.37-1.51V285a1.43,1.43,0,0,1,1.37-1.5q28.38.15,56.75.36a1.43,1.43,0,0,0,1.37-1.49V255.12A1.47,1.47,0,0,0,891.5,253.61Z"></path><path class="cls-1" d="M994,282.42c13.78.16,24.47,6.69,29.93,17.28a1.34,1.34,0,0,0,1.18.76l32,.21a1.41,1.41,0,0,0,1.32-1.84C1050.6,272.72,1026,253.6,994,252.9c-40-.9-69.21,27.8-69.21,66.15S954,386.11,994,385.19c32-.69,56.61-19.8,64.47-45.92a1.41,1.41,0,0,0-1.32-1.84l-32,.2a1.35,1.35,0,0,0-1.18.76c-5.46,10.59-16.15,17.13-29.93,17.28-22.12.29-36.42-15.05-36.42-36.62S971.87,282.14,994,282.42Z"></path><path class="cls-1" d="M1186.9,260q-51.14-1.55-102.28-2.79a1.34,1.34,0,0,0-1.37,1.38v25.79a1.41,1.41,0,0,0,1.37,1.43l33.48.46a1.41,1.41,0,0,1,1.37,1.41v90.86a1.33,1.33,0,0,0,1.37,1.35l29.66-.81a1.41,1.41,0,0,0,1.37-1.41V288.17a1.34,1.34,0,0,1,1.37-1.35l33.66.53a1.31,1.31,0,0,0,1.37-1.32v-24.6A1.4,1.4,0,0,0,1186.9,260Z"></path><path class="cls-1" d="M500.23,183.11c.88,6-2.74,10.23-9.91,11.37q-7.38,1.17-14.74,2.46l-5.91-33.86q7.5-1.31,15-2.52c6.87-1.1,11.24,1.5,12.06,7.08a7.2,7.2,0,0,1-3.56,7.79C497.3,176,499.61,179,500.23,183.11Zm-15.41-17.2-8.58,1.42c.5,2.91,1,5.81,1.48,8.72q4.27-.74,8.56-1.42c4.08-.65,5.33-2.47,4.9-5.25C490.72,166.43,488.89,165.27,484.82,165.91Zm9.72,17.62c-.48-3.11-2.25-4.67-6.81-4-3.05.49-6.11,1-9.16,1.51.54,3.23,1.09,6.46,1.63,9.68l9.13-1.5C493.85,188.54,495,186.43,494.54,183.53Z"></path><path class="cls-1" d="M541.62,153q1.08,10.27,2.18,20.56c1,9.53-4.5,14.83-12.39,15.78s-14.46-2.93-15.74-12.42l-2.73-20.49,5.82-.76q1.28,10.08,2.57,20.16c.85,6.63,4.68,8.81,9.45,8.24s8-3.59,7.25-10.23l-2.25-20.21Z"></path><path class="cls-1" d="M577.55,172.4q.42,5.9.83,11.81c-1.86.13-3.71.28-5.57.42q-.45-5.85-.92-11.7-7.18-10.78-14.64-21.47,3.24-.3,6.5-.57,5.31,7.77,10.5,15.6,3.93-8.52,8-17c2.15-.15,4.31-.28,6.46-.42Q583,160.69,577.55,172.4Z"></path><path class="cls-1" d="M656.6,171.49c0,7.52-6.72,10.45-12.87,10.53-9.65.12-14-5-15.12-11l5.67-.13c1.13,4,3.84,6,9.34,5.9,4.65-.06,7.32-1.88,7.31-5.07s-2.86-3.73-9.38-5.07c-6.82-1.39-12.17-3.11-12.34-9.55-.18-6.83,6-10.56,12.84-10.65,9-.09,13.11,4.39,14.11,9.84h-5.75c-1-2.85-3.47-4.69-8.24-4.64s-7.32,2.18-7.26,5.17c0,2.45,2.08,3.18,7.93,4.35C651.76,163,656.62,164.86,656.6,171.49Z"></path><path class="cls-1" d="M706.84,148.22q-.81,17.16-1.63,34.33l-5.57-.25q.57-13.41,1.13-26.84-5.79,7.77-11.43,15.6l-.55,0q-5.1-8.17-10.37-16.29-.28,13.42-.58,26.86l-5.57-.11q.29-17.17.56-34.37l6.77.13q4.95,7.53,9.77,15.1,5.28-7.25,10.7-14.45Z"></path><path class="cls-1" d="M745.78,176q-7.54-.64-15.09-1.19-2.1,4.49-4.16,9c-2-.14-3.94-.27-5.91-.39q7.75-16.74,15.93-33.36l7.32.58q5.48,17.7,10.51,35.44c-2-.19-3.93-.37-5.9-.54Q747.15,180.77,745.78,176Zm-1.6-5.41q-2.16-7.41-4.41-14.8-3.36,7-6.66,13.93Q738.65,170.14,744.18,170.6Z"></path><path class="cls-1" d="M782.13,176.16l-5.36-.63-1.47,12.73-5.55-.62q1.89-17.1,3.76-34.17,7.34.79,14.65,1.71c7.7,1,11.46,6,10.58,12.36-.76,5.59-4.48,8.79-10.12,9.13q4.36,7.16,8.59,14.35l-6.8-.91Q786.33,183.12,782.13,176.16Zm-4.8-5.51q4.09.47,8.18,1c4.63.57,7.08-1.49,7.52-4.8s-1.49-5.89-6.13-6.46q-4.12-.51-8.27-1Q778,165,777.33,170.65Z"></path><path class="cls-1" d="M840.24,168.3q-5.37-.93-10.73-1.81l-4.71,28.68-5.52-.89q2.28-14.35,4.55-28.71-5.34-.85-10.7-1.64l.78-5.25q13.64,2,27.24,4.4C840.85,164.82,840.54,166.56,840.24,168.3Z"></path></svg>