<?xml version="1.0" encoding="UTF-8"?>
<svg width="752pt" height="752pt" version="1.1" viewBox="0 0 752 752" xmlns="http://www.w3.org/2000/svg">
 <path d="m497.82 161.41h-243.64c-9.7109 0-17.852 7.8633-17.852 17.574v43.379c0 9.7109 8.2305 17.668 17.852 17.668h7.1211v33.207c0 13.875 6.1953 26.73 17.02 35.426l84.172 67.336-82.691 64.102c-11.191 8.6016-17.668 21.738-17.668 35.797v36.074h-8.0469c-9.7109 0-17.852 7.9531-17.852 17.668v43.379c0 9.7109 8.2305 17.574 17.852 17.574h243.54c9.7109 0 17.852-7.8633 17.852-17.574v-43.379c0-9.7109-8.2305-17.668-17.852-17.668h-6.0117v-35.98c0-14.059-6.6602-27.562-17.852-36.074l-84.266-64.102 84.078-67.246c10.82-8.6016 17.02-21.551 17.02-35.426l0.003907-33.113h7.1211c9.7109 0 17.852-7.9531 17.852-17.668v-43.379c0.09375-9.7109-8.1406-17.574-17.758-17.574zm-0.64844 367.21c0.55469 0 0.92578 0.37109 0.92578 0.92578v43.473c0 0.55469-0.37109 0.92578-0.92578 0.92578h-243.27c-0.55469 0-0.92578-0.37109-0.92578-0.92578v-43.473c0-0.55469 0.37109-0.92578 0.92578-0.92578zm-33.484-75.477c7.1211 5.3633 11.285 13.875 11.285 22.848v35.98h-196.09v-36.168c0-8.7891 4.2539-17.297 11.191-22.66l85.93-66.598zm10.359-179.91c0 8.7891-3.9766 16.926-10.82 22.383l-87.227 69.742-87.223-69.742c-6.8438-5.457-10.82-13.598-10.82-22.383v-33.207h196.09zm24.051-50.781c0 0.55469-0.37109 0.92578-0.92578 0.92578h-243.27c-0.55469 0-0.92578-0.37109-0.92578-0.92578v-43.473c0-0.55469 0.37109-0.92578 0.92578-0.92578h243.27c0.55469 0 0.92578 0.37109 0.92578 0.92578z"/>
</svg>
